<svg width="59" height="35" viewBox="0 0 59 35" fill="none" xmlns="http://www.w3.org/2000/svg">
<g id="Group 33684">
<path id="Vector 64" d="M8 25.6755C11.8755 18.1502 18.427 5.96164 22.4871 8.52764C27.5622 11.7352 15.1052 21.6044 21.103 25.6755C27.1009 29.7466 32.6373 4.82664 38.0815 8.52762C43.5258 12.2286 32.8219 21.9745 37.0665 25.6755C40.4622 28.6363 46.294 18.2394 51 10.2617" stroke="#6500C3" stroke-width="15.8161" stroke-linecap="round"/>
<g id="Group 33680">
<path id="Ellipse 12" d="M31.8414 17.0113C31.8414 18.4303 31.4921 19.6995 30.9444 20.6033C30.3931 21.5129 29.6754 22.0051 28.9418 22.0051C28.2081 22.0051 27.4905 21.5129 26.9391 20.6033C26.3914 19.6995 26.0422 18.4303 26.0422 17.0113C26.0422 15.5922 26.3914 14.3231 26.9391 13.4193C27.4905 12.5096 28.2081 12.0175 28.9418 12.0175C29.6754 12.0175 30.3931 12.5096 30.9444 13.4193C31.4921 14.3231 31.8414 15.5922 31.8414 17.0113Z" fill="white" stroke="#0F172A" stroke-width="0.64436"/>
<path id="Ellipse 13" d="M31.8413 17.0113C31.8413 17.8953 31.6188 18.6803 31.2761 19.2338C30.9304 19.7923 30.4949 20.072 30.0693 20.072C29.6437 20.072 29.2081 19.7923 28.8624 19.2338C28.5197 18.6803 28.2973 17.8953 28.2973 17.0113C28.2973 16.1273 28.5197 15.3424 28.8624 14.7888C29.2081 14.2303 29.6437 13.9506 30.0693 13.9506C30.4949 13.9506 30.9304 14.2303 31.2761 14.7888C31.6188 15.3424 31.8413 16.1273 31.8413 17.0113Z" fill="#0F172A" stroke="#0F172A" stroke-width="0.64436"/>
</g>
<g id="Group 33681">
<path id="Ellipse 12_2" d="M40.2181 17.0113C40.2181 18.4303 39.8688 19.6995 39.3211 20.6033C38.7698 21.5129 38.0521 22.0051 37.3185 22.0051C36.5848 22.0051 35.8672 21.5129 35.3159 20.6033C34.7681 19.6995 34.4189 18.4303 34.4189 17.0113C34.4189 15.5922 34.7681 14.3231 35.3159 13.4193C35.8672 12.5096 36.5848 12.0175 37.3185 12.0175C38.0521 12.0175 38.7698 12.5096 39.3211 13.4193C39.8688 14.3231 40.2181 15.5922 40.2181 17.0113Z" fill="white" stroke="#0F172A" stroke-width="0.64436"/>
<path id="Ellipse 13_2" d="M40.218 17.0113C40.218 17.8953 39.9955 18.6803 39.6528 19.2338C39.3071 19.7923 38.8716 20.072 38.446 20.072C38.0204 20.072 37.5848 19.7923 37.2391 19.2338C36.8964 18.6803 36.674 17.8953 36.674 17.0113C36.674 16.1273 36.8964 15.3424 37.2391 14.7888C37.5848 14.2303 38.0204 13.9506 38.446 13.9506C38.8716 13.9506 39.3071 14.2303 39.6528 14.7888C39.9955 15.3424 40.218 16.1273 40.218 17.0113Z" fill="#0F172A" stroke="#0F172A" stroke-width="0.64436"/>
</g>
</g>
</svg>
